<svg width="32" height="19" viewBox="0 0 32 19" fill="none" xmlns="http://www.w3.org/2000/svg">
<path id="Vector" d="M31.228 4.50397L18.103 17.629C17.859 17.875 17.5687 18.0703 17.2488 18.2036C16.9289 18.3368 16.5858 18.4054 16.2393 18.4054C15.8927 18.4054 15.5496 18.3368 15.2297 18.2036C14.9099 18.0703 14.6195 17.875 14.3755 17.629L1.25051 4.50397C1.00448 4.25994 0.809187 3.96961 0.675918 3.64973C0.54265 3.32985 0.474039 2.98675 0.474039 2.64022C0.474039 2.29369 0.54265 1.95059 0.675919 1.63071C0.809187 1.31082 1.00448 1.0205 1.25051 0.776469C1.49454 0.530432 1.78486 0.335148 2.10475 0.20188C2.42463 0.0686123 2.76773 -1.27778e-06 3.11426 -1.26264e-06C3.46079 -1.24749e-06 3.80389 0.0686124 4.12377 0.20188C4.44365 0.335148 4.73398 0.530432 4.97801 0.776469L16.2393 12.064L27.5005 0.77647C27.9948 0.282173 28.6652 0.00448022 29.3643 0.00448025C29.7104 0.00448026 30.0531 0.072654 30.3729 0.205112C30.6927 0.337571 30.9833 0.531719 31.228 0.77647C31.7223 1.27077 32 1.94118 32 2.64022C32 2.98635 31.9318 3.32909 31.7994 3.64888C31.6669 3.96866 31.4728 4.25922 31.228 4.50397Z" fill="#FF7253"/>
</svg>
