<svg width="48" height="48" viewBox="0 0 48 48" fill="none" xmlns="http://www.w3.org/2000/svg">
<path d="M5.00967 14.8437C4.68974 15.1089 4.4358 15.4244 4.26251 15.772C4.08922 16.1196 4 16.4924 4 16.869C4 17.2455 4.08922 17.6183 4.26251 17.9659C4.4358 18.3135 4.68974 18.629 5.00967 18.8942L22.0765 33.1563C22.3938 33.4236 22.7713 33.6358 23.1873 33.7806C23.6032 33.9254 24.0494 34 24.5 34C24.9506 34 25.3968 33.9254 25.8127 33.7806C26.2287 33.6358 26.6062 33.4236 26.9235 33.1563L43.9903 18.8942C44.3103 18.629 44.5642 18.3135 44.7375 17.9659C44.9108 17.6183 45 17.2455 45 16.869C45 16.4924 44.9108 16.1196 44.7375 15.772C44.5642 15.4244 44.3103 15.1089 43.9903 14.8437C43.673 14.5764 43.2955 14.3642 42.8795 14.2194C42.4636 14.0746 42.0174 14 41.5668 14C41.1162 14 40.6701 14.0746 40.2541 14.2194C39.8382 14.3642 39.4607 14.5764 39.1434 14.8437L24.5 27.1091L9.85665 14.8437C9.53933 14.5764 9.16181 14.3642 8.74586 14.2194C8.32991 14.0746 7.88376 14 7.43316 14C6.98255 14 6.53641 14.0746 6.12046 14.2194C5.70451 14.3642 5.32698 14.5764 5.00967 14.8437Z" fill="#FF7253"/>
</svg>
