<svg width="40" height="40" viewBox="0 0 40 40" fill="none" xmlns="http://www.w3.org/2000/svg">
<path d="M20.0017 3.33334C29.2066 3.33334 36.6683 10.795 36.6683 20C36.6683 29.205 29.2066 36.6667 20.0017 36.6667C17.0563 36.6714 14.1627 35.892 11.6183 34.4083L3.34165 36.6667L5.59498 28.3867C4.11014 25.8415 3.33006 22.9467 3.33498 20C3.33498 10.795 10.7967 3.33334 20.0017 3.33334ZM14.3217 12.1667L13.9883 12.18C13.7725 12.1932 13.5616 12.2498 13.3683 12.3467C13.1875 12.4491 13.0225 12.5771 12.8783 12.7267C12.6783 12.915 12.565 13.0783 12.4433 13.2367C11.8269 14.0382 11.4949 15.0222 11.5 16.0333C11.5033 16.85 11.7167 17.645 12.05 18.3883C12.7317 19.8917 13.8533 21.4833 15.3333 22.9583C15.69 23.3133 16.04 23.67 16.4167 24.0017C18.2556 25.6208 20.4471 26.7884 22.8167 27.4117L23.7633 27.5567C24.0717 27.5733 24.38 27.55 24.69 27.535C25.1754 27.51 25.6493 27.3785 26.0783 27.15C26.2966 27.0376 26.5096 26.9152 26.7167 26.7833C26.7167 26.7833 26.7883 26.7367 26.925 26.6333C27.15 26.4667 27.2883 26.3483 27.475 26.1533C27.6133 26.01 27.7333 25.8417 27.825 25.65C27.955 25.3783 28.085 24.86 28.1383 24.4283C28.1783 24.0983 28.1666 23.9183 28.1616 23.8067C28.155 23.6283 28.0067 23.4433 27.845 23.365L26.875 22.93C26.875 22.93 25.425 22.2983 24.5383 21.895C24.4455 21.8545 24.3461 21.8313 24.245 21.8267C24.131 21.815 24.0157 21.8278 23.9071 21.8643C23.7984 21.9008 23.6988 21.9602 23.615 22.0383C23.6066 22.035 23.495 22.13 22.29 23.59C22.2208 23.6829 22.1256 23.7532 22.0163 23.7918C21.9071 23.8304 21.7888 23.8355 21.6766 23.8067C21.5681 23.7776 21.4617 23.7408 21.3583 23.6967C21.1516 23.61 21.08 23.5767 20.9383 23.5167C19.9818 23.0993 19.0961 22.5353 18.3133 21.845C18.1033 21.6617 17.9083 21.4617 17.7083 21.2683C17.0526 20.6404 16.4812 19.93 16.0083 19.155L15.91 18.9967C15.8394 18.8903 15.7823 18.7755 15.74 18.655C15.6767 18.41 15.8417 18.2133 15.8417 18.2133C15.8417 18.2133 16.2467 17.77 16.435 17.53C16.6183 17.2967 16.7733 17.07 16.8733 16.9083C17.07 16.5917 17.1317 16.2667 17.0283 16.015C16.5617 14.875 16.0783 13.74 15.5817 12.6133C15.4833 12.39 15.1917 12.23 14.9267 12.1983C14.8367 12.1883 14.7466 12.1783 14.6566 12.1717C14.4328 12.1606 14.2085 12.1628 13.985 12.1783L14.32 12.165L14.3217 12.1667Z" fill="white"/>
</svg>
