<svg width="18" height="32" viewBox="0 0 18 32" fill="none" xmlns="http://www.w3.org/2000/svg">
<path id="Vector" d="M17.2406 0.771395C17.002 0.526966 16.7181 0.332958 16.4052 0.200562C16.0924 0.068165 15.7568 0 15.4179 0C15.079 0 14.7435 0.068165 14.4307 0.200562C14.1178 0.332958 13.8339 0.526966 13.5952 0.771395L0.759366 13.8106C0.518749 14.053 0.327766 14.3415 0.197434 14.6592C0.0671015 14.977 0 15.3179 0 15.6622C0 16.0064 0.0671015 16.3473 0.197434 16.6651C0.327766 16.9829 0.518749 17.2713 0.759366 17.5137L13.5952 30.5529C13.8339 30.7974 14.1178 30.9914 14.4307 31.1238C14.7435 31.2562 15.079 31.3243 15.4179 31.3243C15.7568 31.3243 16.0924 31.2562 16.4052 31.1238C16.7181 30.9914 17.002 30.7974 17.2406 30.5529C17.4813 30.3105 17.6722 30.0221 17.8026 29.7043C17.9329 29.3865 18 29.0456 18 28.7014C18 28.3571 17.9329 28.0162 17.8026 27.6984C17.6722 27.3807 17.4813 27.0922 17.2406 26.8498L6.20178 15.6622L17.2406 4.47453C17.4813 4.23209 17.6722 3.94367 17.8026 3.62588C17.9329 3.30809 18 2.96723 18 2.62296C18 2.2787 17.9329 1.93784 17.8026 1.62005C17.6722 1.30226 17.4813 1.01383 17.2406 0.771395Z" fill="#FF7253"/>
</svg>
