<svg width="18" height="32" viewBox="0 0 18 32" fill="none" xmlns="http://www.w3.org/2000/svg">
<path id="Vector" d="M4.40476 0.767053L17.2406 13.8081C17.4812 14.0506 17.6722 14.339 17.8026 14.6569C17.9329 14.9747 18 15.3156 18 15.6599C18 16.0043 17.9329 16.3452 17.8026 16.663C17.6722 16.9808 17.4812 17.2693 17.2406 17.5118L4.40476 30.5528C4.1661 30.7973 3.88217 30.9913 3.56934 31.1237C3.2565 31.2561 2.92096 31.3243 2.58206 31.3243C2.24316 31.3243 1.90762 31.2561 1.59479 31.1237C1.28195 30.9913 0.998018 30.7973 0.759366 30.5528C0.518749 30.3103 0.327766 30.0219 0.197434 29.704C0.0671022 29.3862 0 29.0453 0 28.701C0 28.3567 0.0671022 28.0158 0.197434 27.6979C0.327766 27.3801 0.518749 27.0916 0.759366 26.8492L11.7982 15.6599L0.759366 4.47071C0.275957 3.97958 0.00438167 3.31345 0.00438167 2.61888C0.00438167 2.27497 0.0710537 1.93442 0.200594 1.61668C0.330135 1.29894 0.520006 1.01024 0.759366 0.767053C1.24277 0.275917 1.89842 0 2.58206 0C2.92057 0 3.25576 0.0677402 3.5685 0.199351C3.88124 0.330962 4.1654 0.523867 4.40476 0.767053Z" fill="#FF7253"/>
</svg>
