<svg width="40" height="40" viewBox="0 0 40 40" fill="none" xmlns="http://www.w3.org/2000/svg">
<path d="M19.99 3.33334C16.6937 3.33334 13.4714 4.31083 10.7305 6.14218C7.98972 7.97354 5.85351 10.5765 4.59205 13.622C3.33059 16.6674 3.00053 20.0185 3.64362 23.2515C4.2867 26.4845 5.87405 29.4542 8.20493 31.7851C10.5358 34.116 13.5055 35.7033 16.7385 36.3464C19.9715 36.9895 23.3227 36.6595 26.3681 35.398C29.4135 34.1365 32.0165 32.0003 33.8479 29.2595C35.6792 26.5187 36.6567 23.2964 36.6567 20C36.6567 17.8113 36.2256 15.644 35.388 13.622C34.5505 11.5999 33.3228 9.76254 31.7752 8.2149C30.2275 6.66725 28.3902 5.4396 26.3681 4.60202C24.346 3.76444 22.1787 3.33334 19.99 3.33334ZM25.29 28.5867C25.2278 28.7424 25.133 28.883 25.012 28.999C24.891 29.115 24.7465 29.2038 24.5883 29.2594C24.4301 29.315 24.2619 29.336 24.0949 29.3212C23.9278 29.3064 23.7659 29.2559 23.62 29.1733L19.095 25.6567L16.1917 28.3367C16.1243 28.3864 16.0455 28.4185 15.9625 28.4298C15.8795 28.4412 15.795 28.4315 15.7167 28.4017L16.2734 23.42L16.29 23.435L16.3017 23.3367C16.3017 23.3367 24.4434 15.9233 24.775 15.6083C25.1117 15.2933 25 15.225 25 15.225C25.02 14.8417 24.3984 15.225 24.3984 15.225L13.61 22.165L9.11837 20.635C9.11837 20.635 8.42837 20.3883 8.36337 19.8433C8.29504 19.3033 9.14004 19.01 9.14004 19.01L27.0017 11.9133C27.0017 11.9133 28.47 11.26 28.47 12.3433L25.29 28.5867Z" fill="white"/>
</svg>
